<mxfile host="app.diagrams.net" modified="2023-11-14T02:56:03.749Z" agent="Mozilla/5.0 (Windows NT 10.0; Win64; x64) AppleWebKit/537.36 (KHTML, like Gecko) Chrome/119.0.0.0 Safari/537.36" etag="gbIWRMXmVPg7SQOi6E23" version="22.1.0" type="github">
  <diagram name="Halaman-1" id="-T-bzkYqAhX9n5a9GXsm">
    <mxGraphModel dx="1311" dy="718" grid="1" gridSize="10" guides="1" tooltips="1" connect="1" arrows="1" fold="1" page="1" pageScale="1" pageWidth="827" pageHeight="1169" math="0" shadow="0">
      <root>
        <mxCell id="0" />
        <mxCell id="1" parent="0" />
        <mxCell id="BGqXnPGuD5EItkB8HdeO-1" value="USER" style="rounded=0;whiteSpace=wrap;html=1;" vertex="1" parent="1">
          <mxGeometry x="90" y="160" width="180" height="80" as="geometry" />
        </mxCell>
        <mxCell id="BGqXnPGuD5EItkB8HdeO-2" value="" style="endArrow=none;html=1;rounded=0;" edge="1" parent="1" target="BGqXnPGuD5EItkB8HdeO-3">
          <mxGeometry width="50" height="50" relative="1" as="geometry">
            <mxPoint x="210" y="160" as="sourcePoint" />
            <mxPoint x="210" y="90" as="targetPoint" />
          </mxGeometry>
        </mxCell>
        <mxCell id="BGqXnPGuD5EItkB8HdeO-3" value="USSERNAME" style="ellipse;whiteSpace=wrap;html=1;rotation=-30;" vertex="1" parent="1">
          <mxGeometry x="95.67" y="63.84" width="90" height="60" as="geometry" />
        </mxCell>
        <mxCell id="BGqXnPGuD5EItkB8HdeO-7" value="NIK" style="ellipse;whiteSpace=wrap;html=1;rotation=15;" vertex="1" parent="1">
          <mxGeometry x="221.46" y="48.88" width="90" height="50" as="geometry" />
        </mxCell>
        <mxCell id="BGqXnPGuD5EItkB8HdeO-9" value="" style="endArrow=none;html=1;rounded=0;exitX=0.75;exitY=0;exitDx=0;exitDy=0;" edge="1" parent="1" source="BGqXnPGuD5EItkB8HdeO-1">
          <mxGeometry width="50" height="50" relative="1" as="geometry">
            <mxPoint x="248.84" y="157.15" as="sourcePoint" />
            <mxPoint x="270.0045765870539" y="100.0047697139984" as="targetPoint" />
          </mxGeometry>
        </mxCell>
        <mxCell id="BGqXnPGuD5EItkB8HdeO-10" value="" style="endArrow=none;html=1;rounded=0;" edge="1" parent="1">
          <mxGeometry width="50" height="50" relative="1" as="geometry">
            <mxPoint x="270" y="200" as="sourcePoint" />
            <mxPoint x="360" y="200" as="targetPoint" />
          </mxGeometry>
        </mxCell>
        <mxCell id="BGqXnPGuD5EItkB8HdeO-11" value="MENCATAT" style="rhombus;whiteSpace=wrap;html=1;" vertex="1" parent="1">
          <mxGeometry x="360" y="172" width="129" height="55" as="geometry" />
        </mxCell>
        <mxCell id="BGqXnPGuD5EItkB8HdeO-12" value="" style="endArrow=none;html=1;rounded=0;" edge="1" parent="1">
          <mxGeometry width="50" height="50" relative="1" as="geometry">
            <mxPoint x="487" y="200" as="sourcePoint" />
            <mxPoint x="597" y="200" as="targetPoint" />
          </mxGeometry>
        </mxCell>
        <mxCell id="BGqXnPGuD5EItkB8HdeO-14" value="" style="whiteSpace=wrap;html=1;" vertex="1" parent="1">
          <mxGeometry x="1540" y="480" width="120" height="60" as="geometry" />
        </mxCell>
        <mxCell id="BGqXnPGuD5EItkB8HdeO-16" value="CATATAN PERJALANAN" style="rounded=0;whiteSpace=wrap;html=1;" vertex="1" parent="1">
          <mxGeometry x="560" y="170" width="158" height="80" as="geometry" />
        </mxCell>
        <mxCell id="BGqXnPGuD5EItkB8HdeO-18" value="" style="endArrow=none;html=1;rounded=0;" edge="1" parent="1" target="BGqXnPGuD5EItkB8HdeO-19">
          <mxGeometry width="50" height="50" relative="1" as="geometry">
            <mxPoint x="625" y="169" as="sourcePoint" />
            <mxPoint x="607" y="111" as="targetPoint" />
          </mxGeometry>
        </mxCell>
        <mxCell id="BGqXnPGuD5EItkB8HdeO-19" value="Tanggal" style="ellipse;whiteSpace=wrap;html=1;rotation=-15;" vertex="1" parent="1">
          <mxGeometry x="558.24" y="50" width="80" height="60" as="geometry" />
        </mxCell>
        <mxCell id="BGqXnPGuD5EItkB8HdeO-21" value="" style="endArrow=none;html=1;rounded=0;" edge="1" parent="1">
          <mxGeometry width="50" height="50" relative="1" as="geometry">
            <mxPoint x="652.5" y="170" as="sourcePoint" />
            <mxPoint x="681.2638169749216" y="109.48346340017451" as="targetPoint" />
          </mxGeometry>
        </mxCell>
        <mxCell id="BGqXnPGuD5EItkB8HdeO-22" value="Id_Perjalanan" style="ellipse;whiteSpace=wrap;html=1;rotation=15;" vertex="1" parent="1">
          <mxGeometry x="637.88" y="53.24" width="101.76" height="58.71" as="geometry" />
        </mxCell>
        <mxCell id="BGqXnPGuD5EItkB8HdeO-29" value="Suhu_Tubuh" style="ellipse;whiteSpace=wrap;html=1;rotation=-15;" vertex="1" parent="1">
          <mxGeometry x="480" y="60" width="80" height="60" as="geometry" />
        </mxCell>
        <mxCell id="BGqXnPGuD5EItkB8HdeO-30" value="" style="endArrow=none;html=1;rounded=0;" edge="1" parent="1">
          <mxGeometry width="50" height="50" relative="1" as="geometry">
            <mxPoint x="559" y="171" as="sourcePoint" />
            <mxPoint x="541" y="113" as="targetPoint" />
          </mxGeometry>
        </mxCell>
        <mxCell id="BGqXnPGuD5EItkB8HdeO-31" value="lokasi" style="ellipse;whiteSpace=wrap;html=1;rotation=15;" vertex="1" parent="1">
          <mxGeometry x="739.67" y="78.48" width="90.16" height="60" as="geometry" />
        </mxCell>
        <mxCell id="BGqXnPGuD5EItkB8HdeO-32" value="" style="endArrow=none;html=1;rounded=0;exitX=1;exitY=0;exitDx=0;exitDy=0;" edge="1" parent="1" source="BGqXnPGuD5EItkB8HdeO-16" target="BGqXnPGuD5EItkB8HdeO-31">
          <mxGeometry width="50" height="50" relative="1" as="geometry">
            <mxPoint x="740" y="190" as="sourcePoint" />
            <mxPoint x="768.4038169749216" y="138.7134634001745" as="targetPoint" />
          </mxGeometry>
        </mxCell>
        <mxCell id="BGqXnPGuD5EItkB8HdeO-33" value="lokasi" style="ellipse;whiteSpace=wrap;html=1;rotation=60;" vertex="1" parent="1">
          <mxGeometry x="810" y="123.84" width="101.76" height="58.71" as="geometry" />
        </mxCell>
        <mxCell id="BGqXnPGuD5EItkB8HdeO-34" value="" style="endArrow=none;html=1;rounded=0;exitX=0.995;exitY=0.385;exitDx=0;exitDy=0;exitPerimeter=0;" edge="1" parent="1" source="BGqXnPGuD5EItkB8HdeO-16" target="BGqXnPGuD5EItkB8HdeO-33">
          <mxGeometry width="50" height="50" relative="1" as="geometry">
            <mxPoint x="728" y="180" as="sourcePoint" />
            <mxPoint x="830" y="170" as="targetPoint" />
          </mxGeometry>
        </mxCell>
      </root>
    </mxGraphModel>
  </diagram>
</mxfile>
